<?xml version="1.0" encoding="utf-8"?>
<!-- Generator: Adobe Illustrator 25.0.0, SVG Export Plug-In . SVG Version: 6.00 Build 0)  -->
<svg version="1.1" id="Layer_1" xmlns="http://www.w3.org/2000/svg" xmlns:xlink="http://www.w3.org/1999/xlink" x="0px" y="0px"
	 viewBox="0 0 624 536" style="enable-background:new 0 0 624 536;" xml:space="preserve">
<style type="text/css">
	.st0{fill:#CFD2E1;}
	.st1{fill:#747681;}
	.st2{fill:#FFFFFF;}
	.st3{fill:url(#SVGID_1_);}
	.st4{fill:url(#SVGID_2_);}
	.st5{fill:url(#SVGID_3_);}
	.st6{fill:url(#SVGID_4_);}
	.st7{fill:#66340E;}
	.st8{fill:#CA9151;}
	.st9{fill:#927B59;}
	.st10{fill:#C1A477;}
	.st11{opacity:0.4;}
	.st12{fill:url(#SVGID_5_);}
	.st13{fill:url(#SVGID_6_);}
	.st14{fill:#FAE7CA;}
	.st15{opacity:0.5;}
	.st16{fill:url(#SVGID_7_);}
	.st17{fill:url(#SVGID_8_);}
	.st18{fill:url(#SVGID_9_);}
	.st19{fill:url(#SVGID_10_);}
	.st20{fill:url(#SVGID_11_);}
	.st21{fill:url(#SVGID_12_);}
	.st22{fill:#957E5A;}
	.st23{fill:url(#SVGID_13_);}
	.st24{fill:url(#SVGID_14_);}
	.st25{opacity:0.5;fill:#E5CDA7;}
	.st26{opacity:0.5;fill:#927B59;}
	.st27{opacity:0.5;fill:#66340E;}
	.st28{fill:url(#SVGID_15_);}
	.st29{fill:url(#SVGID_16_);}
	.st30{fill:url(#SVGID_17_);}
	.st31{fill:url(#SVGID_18_);}
	.st32{fill:url(#SVGID_19_);}
</style>
<g>
	<g>
		<path class="st0" d="M569.7,83.2c0,3.6-1,34.9-1.2,41.2c-0.2,6.4-6.1,166.4-6.5,176.4c-0.3,10-1,28.4-2,37.3
			c-0.9,8.9-2.2,17.4-6.7,23.2c-4.5,5.9-12.9,7-18.9,7.3c-7.7,0.4-10.8,0.6-23.2-0.4c13.1,0.5,16,0.3,22.1-0.1
			c6.1-0.4,14.6-1.5,18.9-7.1c4.5-5.9,5.7-14.3,6.7-23.3c0.9-8.9,1.6-27.4,2-37.3c0.4-10,6.3-170.2,6.5-176.6
			c0.2-6.4,1.2-37.7,1.2-41.3c0-3.6,0-12.9-0.4-18.6c-0.3-5.7-1.1-8.7-1.9-11.5c-0.9-2.8-2.4-5.2-3.9-6.6
			c-4.6-4.2-13.6-5.2-23.2-5.3c17.6-0.2,22.1,3.5,24.4,5.9c1.4,1.5,3,3.8,3.9,6.6c0.9,2.8,1.6,5.7,1.9,11.4
			C569.7,70.3,569.7,79.6,569.7,83.2z"/>
		<g>
			<image style="overflow:visible;" width="552" height="119" xlink:href="825331EE.png"  transform="matrix(1 0 0 1 0 355)">
			</image>
			<image style="overflow:visible;" width="203" height="38" xlink:href="825331E8.png"  transform="matrix(1 0 0 1 124 410)">
			</image>
			<image style="overflow:visible;" width="82" height="18" xlink:href="825331E7.png"  transform="matrix(1 0 0 1 150 441)">
			</image>
		</g>
		<image style="overflow:visible;" width="396" height="329" xlink:href="825331E0.png"  transform="matrix(1 0 0 1 173 40)">
		</image>
		<path class="st1" d="M569.7,83.2c0,3.6-1,34.9-1.2,41.2c-0.2,6.4-6.1,166.4-6.5,176.4c-0.3,10-1,28.4-2,37.3
			c-0.9,8.9-2.2,17.4-6.7,23.2c-4.5,5.9-12.9,7-18.9,7.3c-7.7,0.4-10.8,0.6-23.2-0.4c13.1,0.5,16,0.3,22.1-0.1
			c6.1-0.4,14.6-1.5,18.9-7.1c4.5-5.9,5.7-14.3,6.7-23.3c0.9-8.9,1.6-27.4,2-37.3c0.4-10,6.3-170.2,6.5-176.6
			c0.2-6.4,1.2-37.7,1.2-41.3c0-3.6,0-12.9-0.4-18.6c-0.3-5.7-1.1-8.7-1.9-11.5c-0.9-2.8-2.4-5.2-3.9-6.6
			c-4.6-4.2-13.6-5.2-23.2-5.3c17.6-0.2,22.1,3.5,24.4,5.9c1.4,1.5,3,3.8,3.9,6.6c0.9,2.8,1.6,5.7,1.9,11.4
			C569.7,70.3,569.7,79.6,569.7,83.2z"/>
		<path class="st2" d="M523.3,363.6c-3.4,0-46.5-0.8-72.3-2.1c-29.2-1.5-60.5-2.3-69.6-2.7c0,0-139.2-5.6-148.1-5.9
			c-11-0.4-31.1-1.7-34.8-2.1c-8.5-0.8-15-2.2-17.6-4.8c-3.1-3.2-4.2-7.4-4.5-13.8c-0.2-4.5,0-17.5,0.1-22.9
			c0.2-10.2,9.5-203.5,10.6-217.3c1-12.5,2.5-20.8,5.8-24.7c1.9-2.2,4.3-4.3,14.8-5.7c9.5-1.3,22-2,37.3-2.8c0,0,66.9-3.4,89.1-4.4
			c16.8-0.8,59.7-2.9,90.9-4.5c15.1-0.8,29.2-1.4,34.6-1.6c0,0,53.5-3.6,79.6-2.9c12.1,0.3,15.8,1.1,19.4,4.5c0.4,0.4,2,2.2,2.8,4.4
			c0.7,2.1,1.5,4.6,1.8,10c0.3,5.7,0.3,15.5,0.3,18.4c0,3.3-1,34.2-1.2,41c-0.1,1.8-0.6,16.1-1.3,35.8c-1.8,50-4.9,133.7-5.2,140.8
			c-0.6,18.2-1.4,30.6-2,36.9c-0.8,7.6-1.8,16.1-5.6,20.6c-3.3,3.9-8.5,4.9-14.8,5.4C529.5,363.5,527,363.6,523.3,363.6z"/>
		<linearGradient id="SVGID_1_" gradientUnits="userSpaceOnUse" x1="581.1187" y1="30.4497" x2="130.6348" y2="419.945">
			<stop  offset="0" style="stop-color:#FDFDFD"/>
			<stop  offset="0.8455" style="stop-color:#D4D5D9"/>
			<stop  offset="1" style="stop-color:#CCCDD2"/>
		</linearGradient>
		<path class="st3" d="M523.3,363.6c-3.4,0-46.5-0.8-72.3-2.1c-29.2-1.5-60.5-2.3-69.6-2.7c0,0-139.2-5.6-148.1-5.9
			c-11-0.4-31.1-1.7-34.8-2.1c-8.5-0.8-15-2.2-17.6-4.8c-3.1-3.2-4.2-7.4-4.5-13.8c-0.2-4.5,0-17.5,0.1-22.9
			c0.2-10.2,9.5-203.5,10.6-217.3c1-12.5,2.5-20.8,5.8-24.7c1.9-2.2,4.3-4.3,14.8-5.7c9.5-1.3,22-2,37.3-2.8c0,0,66.9-3.4,89.1-4.4
			c16.8-0.8,59.7-2.9,90.9-4.5c15.1-0.8,29.2-1.4,34.6-1.6c0,0,53.5-3.6,79.6-2.9c12.1,0.3,15.8,1.1,19.4,4.5c0.4,0.4,2,2.2,2.8,4.4
			c0.7,2.1,1.5,4.6,1.8,10c0.3,5.7,0.3,15.5,0.3,18.4c0,3.3-1,34.2-1.2,41c-0.1,1.8-0.6,16.1-1.3,35.8c-1.8,50-4.9,133.7-5.2,140.8
			c-0.6,18.2-1.4,30.6-2,36.9c-0.8,7.6-1.8,16.1-5.6,20.6c-3.3,3.9-8.5,4.9-14.8,5.4C529.5,363.5,527,363.6,523.3,363.6z"/>
		<g>
			<image style="overflow:visible;" width="426" height="62" xlink:href="825331E1.png"  transform="matrix(1 0 0 1 90 360)">
			</image>
			<image style="overflow:visible;" width="56" height="15" xlink:href="825331E2.png"  transform="matrix(1 0 0 1 168 357)">
			</image>
			<image style="overflow:visible;" width="60" height="18" xlink:href="825331E3.png"  transform="matrix(1 0 0 1 449 369)">
			</image>
			<image style="overflow:visible;" width="64" height="19" xlink:href="825331E4.png"  transform="matrix(1 0 0 1 390 403)">
			</image>
			<image style="overflow:visible;" width="62" height="20" xlink:href="825331E5.png"  transform="matrix(1 0 0 1 411 391)">
			</image>
			<image style="overflow:visible;" width="61" height="19" xlink:href="D6063760.png"  transform="matrix(1 0 0 1 430 379)">
			</image>
			<image style="overflow:visible;" width="159" height="25" xlink:href="D6063768.png"  transform="matrix(1 0 0 1 190 392)">
			</image>
			<image style="overflow:visible;" width="59" height="17" xlink:href="D606376C.png"  transform="matrix(1 0 0 1 399 367)">
			</image>
			<image style="overflow:visible;" width="63" height="20" xlink:href="D6063754.png"  transform="matrix(1 0 0 1 338 400)">
			</image>
			<image style="overflow:visible;" width="61" height="20" xlink:href="D6063755.png"  transform="matrix(1 0 0 1 359 388)">
			</image>
			<image style="overflow:visible;" width="60" height="19" xlink:href="D6063756.png"  transform="matrix(1 0 0 1 380 377)">
			</image>
			<image style="overflow:visible;" width="58" height="17" xlink:href="D6063757.png"  transform="matrix(1 0 0 1 350 365)">
			</image>
			<image style="overflow:visible;" width="60" height="19" xlink:href="D6063758.png"  transform="matrix(1 0 0 1 309 386)">
			</image>
			<image style="overflow:visible;" width="59" height="18" xlink:href="D6063759.png"  transform="matrix(1 0 0 1 330 375)">
			</image>
			<image style="overflow:visible;" width="57" height="16" xlink:href="D606375A.png"  transform="matrix(1 0 0 1 303 363)">
			</image>
			<image style="overflow:visible;" width="60" height="14" xlink:href="D606378C.png"  transform="matrix(1 0 0 1 260 384)">
			</image>
			<image style="overflow:visible;" width="59" height="18" xlink:href="D606378B.png"  transform="matrix(1 0 0 1 282 373)">
			</image>
			<image style="overflow:visible;" width="56" height="16" xlink:href="D60637B0.png"  transform="matrix(1 0 0 1 257 361)">
			</image>
			<image style="overflow:visible;" width="59" height="15" xlink:href="D60637B1.png"  transform="matrix(1 0 0 1 213 381)">
			</image>
			<image style="overflow:visible;" width="58" height="17" xlink:href="D60637B2.png"  transform="matrix(1 0 0 1 235 371)">
			</image>
			<image style="overflow:visible;" width="56" height="16" xlink:href="D60637B3.png"  transform="matrix(1 0 0 1 212 359)">
			</image>
			<image style="overflow:visible;" width="60" height="18" xlink:href="D60637B4.png"  transform="matrix(1 0 0 1 143 390)">
			</image>
			<image style="overflow:visible;" width="58" height="17" xlink:href="D60637B5.png"  transform="matrix(1 0 0 1 167 379)">
			</image>
			<image style="overflow:visible;" width="57" height="16" xlink:href="D60637B6.png"  transform="matrix(1 0 0 1 190 369)">
			</image>
			<image style="overflow:visible;" width="59" height="17" xlink:href="D60637AF.png"  transform="matrix(1 0 0 1 98 388)">
			</image>
			<image style="overflow:visible;" width="58" height="17" xlink:href="D6063798.png"  transform="matrix(1 0 0 1 122 377)">
			</image>
			<image style="overflow:visible;" width="56" height="16" xlink:href="D6063794.png"  transform="matrix(1 0 0 1 146 367)">
			</image>
		</g>
	</g>
	
		<image style="overflow:visible;opacity:0.7;" width="56" height="44" xlink:href="D6063795.png"  transform="matrix(1 0 0 1 499 75)">
	</image>
	<g>
		
			<linearGradient id="SVGID_2_" gradientUnits="userSpaceOnUse" x1="1891.2068" y1="166.1675" x2="1950.249" y2="166.1675" gradientTransform="matrix(-0.9999 -1.140000e-02 -1.140000e-02 0.9999 2393.1934 -104.6353)">
			<stop  offset="0" style="stop-color:#F4E7D1"/>
			<stop  offset="1" style="stop-color:#E5CDA7"/>
		</linearGradient>
		<polygon class="st4" points="440.9,71.3 488.4,66.5 500.6,8 451.5,20 		"/>
		
			<linearGradient id="SVGID_3_" gradientUnits="userSpaceOnUse" x1="1850.3513" y1="193.5703" x2="1898.6715" y2="162.4641" gradientTransform="matrix(-0.9999 -1.140000e-02 -1.140000e-02 0.9999 2393.1934 -104.6353)">
			<stop  offset="0" style="stop-color:#AF8E61"/>
			<stop  offset="1" style="stop-color:#CEBA95"/>
		</linearGradient>
		<polygon class="st5" points="530.9,94.1 488.4,66.5 500.6,8 540.8,47 		"/>
		<g>
			
				<linearGradient id="SVGID_4_" gradientUnits="userSpaceOnUse" x1="1858.9546" y1="215.4637" x2="1949.4132" y2="194.5288" gradientTransform="matrix(-0.9999 -1.140000e-02 -1.140000e-02 0.9999 2393.1934 -104.6353)">
				<stop  offset="0" style="stop-color:#926D33"/>
				<stop  offset="1" style="stop-color:#7B5628"/>
			</linearGradient>
			<polygon class="st6" points="530.9,94.1 488.4,66.5 440.9,71.3 495.6,93.2 			"/>
		</g>
		<g>
			<path class="st7" d="M488.4,66.5c-2,0.2-4,0.3-5.9,0.5l-5.9,0.5c-2,0.2-4,0.4-5.9,0.6l-5.9,0.6l-5.9,0.6c-2,0.2-4,0.4-5.9,0.6
				l-5.9,0.6c-2,0.2-4,0.4-5.9,0.7c2-0.2,4-0.3,5.9-0.5l5.9-0.5c2-0.2,4-0.4,5.9-0.6l5.9-0.6l5.9-0.6c2-0.2,4-0.4,5.9-0.6l5.9-0.6
				C484.4,67,486.4,66.8,488.4,66.5z"/>
		</g>
		<g>
			<polygon class="st8" points="464.7,69.1 505.8,89.8 513,93.6 513.5,93.6 506.3,89.8 465.1,69 			"/>
		</g>
		<g>
			<path class="st9" d="M501.9,89.9L502,90l6.8,3.6l8.7,0.2l-6.7-3.5l-0.1,0c-0.1,0-0.3,0.1-0.6,0c-0.3,0-0.4,0-0.5-0.1
				c-0.1,0-0.3-0.1-0.6-0.1c-0.3,0-0.5,0-0.7,0.1c-0.2,0-0.3,0.1-0.6,0.1c-0.3,0-0.4,0-0.5-0.1c-0.1,0-0.3-0.1-0.6-0.1
				c-0.3,0-0.5,0-0.7,0.1c-0.2,0-0.3,0.1-0.6,0.1c-0.3,0-0.4,0-0.5-0.1c-0.1,0-0.3-0.1-0.6-0.1c-0.3,0-0.5,0-0.7,0.1
				c-0.2,0-0.3,0.1-0.6,0.1c-0.3,0-0.4,0-0.6-0.1C502.2,90,502.1,89.9,501.9,89.9z"/>
			<path class="st9" d="M459.3,69.4l5.7,3l0.1,0.1c0.2,0,0.4,0,0.7,0c0.3,0,0.5-0.1,0.6-0.1c0.1,0,0.3-0.1,0.5-0.1
				c0.3,0,0.4,0,0.6,0c0.2,0,0.4,0,0.7,0c0.3,0,0.5-0.1,0.6-0.1c0.1,0,0.3-0.1,0.5-0.1c0.3,0,0.4,0,0.6,0c0.2,0,0.4,0,0.7,0
				c0.3,0,0.5-0.1,0.6-0.1c0.1,0,0.3-0.1,0.5-0.1c0.3,0,0.4,0,0.6,0c0.2,0,0.4,0,0.7,0c0.3,0,0.5-0.1,0.6-0.1c0.1,0,0.3-0.1,0.5-0.1
				c0.3,0,0.4,0,0.6,0c0.2,0,0.4,0,0.7,0c0.1,0,0.2,0,0.2,0l-0.1,0l-5.8-3l0,0L459.3,69.4z"/>
		</g>
		<g>
			<path class="st10" d="M459.3,69.4l10.6-1.1l1.2-6.6c-0.2-0.1-0.4-0.3-0.8-0.2c-0.6,0.1-0.5,0.5-1.2,0.6c-0.6,0.1-0.7-0.4-1.3-0.3
				c-0.6,0.1-0.5,0.5-1.2,0.6c-0.6,0.1-0.7-0.4-1.3-0.3c-0.6,0.1-0.5,0.5-1.2,0.6c-0.6,0.1-0.7-0.4-1.3-0.3
				c-0.6,0.1-0.5,0.5-1.2,0.6c-0.6,0.1-0.7-0.4-1.3-0.3c0,0-0.1,0-0.1,0L459.3,69.4z"/>
			<path class="st10" d="M467.3,21.4c0.2-0.2,0.3-0.4,0.7-0.5c0.6-0.1,0.7,0.3,1.3,0.2c0.6-0.1,0.5-0.6,1.1-0.7
				c0.6-0.1,0.7,0.3,1.3,0.2c0.6-0.1,0.5-0.6,1.1-0.7c0.6-0.1,0.7,0.3,1.3,0.2c0.6-0.1,0.5-0.6,1.1-0.7c0.6-0.1,0.7,0.3,1.3,0.2
				c0.6-0.1,0.5-0.6,1.1-0.7c0.6-0.1,0.7,0.3,1.2,0.3l1.1-5.9l-11.8,2.7L467.3,21.4z"/>
		</g>
		<g>
			<g>
				<path class="st11" d="M498,68.3l-5.3-3.6l2.3-10.7l5.3,3.9L498,68.3z M493.1,64.3l4.7,3.3l2-9.4l-4.7-3.4L493.1,64.3z"/>
			</g>
			<g>
				<path class="st11" d="M503.7,72.3l-5.1-3.5l2.2-10.5l5,3.7L503.7,72.3z M499.1,68.4l4.5,3.1l1.9-9.2l-4.5-3.3L499.1,68.4z"/>
			</g>
			<path class="st11" d="M495.6,59.1c-0.2,1.2,0,2.5,0.5,3l-0.4,1.9l-0.3-0.2l-0.1,0.6l-0.4-0.3l-0.1,0.6l1.7,1.2l0.1-0.6l-0.4-0.3
				l0.1-0.6l-0.3-0.2l0.4-1.9c0.6,0.3,1.2-0.4,1.5-1.6l0.5-2.3l-2.3-1.7L495.6,59.1z"/>
			<polygon class="st11" points="499.8,67.5 499.7,68 503.3,70.5 503.4,69.9 			"/>
			<polygon class="st11" points="500.6,67.5 500.9,67.7 501.2,67.9 502.1,63.6 501.8,63.4 501.5,63.2 			"/>
			<polygon class="st11" points="502.3,68.7 502.5,68.9 502.8,69.1 503.7,64.7 503.4,64.5 503.2,64.3 			"/>
			<polygon class="st11" points="502.3,61 501.2,62.5 502.6,63.4 			"/>
			<polygon class="st11" points="503.9,62.2 502.9,63.6 504.2,64.6 			"/>
		</g>
	</g>
	<g>
		<g>
			<g>
				<image style="overflow:visible;" width="131" height="20" xlink:href="D6063796.png"  transform="matrix(1 0 0 1 493 486)">
				</image>
			</g>
			<g>
				
					<linearGradient id="SVGID_5_" gradientUnits="userSpaceOnUse" x1="284" y1="-1380.8286" x2="351.0882" y2="-1380.8286" gradientTransform="matrix(-1 0 0 1 908 1813.4742)">
					<stop  offset="0" style="stop-color:#AF8E61"/>
					<stop  offset="1" style="stop-color:#C6AE88"/>
				</linearGradient>
				<polygon class="st12" points="624,493.5 556.9,504.3 556.9,368.5 624,360.9 				"/>
				
					<linearGradient id="SVGID_6_" gradientUnits="userSpaceOnUse" x1="351.0882" y1="-1379.509" x2="414.4111" y2="-1379.509" gradientTransform="matrix(-1 0 0 1 908 1813.4742)">
					<stop  offset="0" style="stop-color:#F6EBD7"/>
					<stop  offset="1" style="stop-color:#E3C9A0"/>
				</linearGradient>
				<polygon class="st13" points="493.6,495 556.9,504.3 556.9,368.5 493.6,363.6 				"/>
				<g>
					<polygon class="st14" points="624,360.9 556.9,368.5 493.6,363.6 548.7,355.9 					"/>
				</g>
				<g>
					<polygon class="st8" points="579.6,358 525.5,366.1 524.9,366.2 523.5,366.1 524.4,366 578.8,357.9 					"/>
				</g>
				<path class="st8" d="M556.9,368.5c-21.1-1.5-42.2-3.1-63.3-4.9C514.7,365.1,535.8,366.7,556.9,368.5z"/>
				<path class="st10" d="M528.6,500.2l0-6.8c-0.1,0-0.2,0-0.3,0c-1-0.1-0.8-0.8-1.8-0.9c-1-0.1-1.1,0.5-2.1,0.3s-0.8-0.8-1.8-0.9
					c-0.2,0-0.4,0-0.5,0c-0.6,0.1-0.8,0.4-1.6,0.3c-1-0.1-0.8-0.8-1.8-0.9c-1-0.1-1.1,0.5-2.1,0.3c-0.3,0-0.5-0.2-0.7-0.3l0,7
					L528.6,500.2z"/>
				<path class="st10" d="M516.5,365.4l-0.2,5.3c0,0,1-0.6,2-0.5c1,0.1,0.9,0.7,1.9,0.7c0.9,0.1,1-0.5,1.9-0.5c0,0,0.1,0,0.1,0
					c1,0.1,0.9,0.7,1.9,0.7c1,0.1,1-0.6,2-0.5c1,0.1,0.9,0.7,1.9,0.7c0.2,0,0.4,0,0.5,0l0-5L516.5,365.4z"/>
				<path class="st10" d="M516.5,365.4l12,1l10.8-1.7c-0.3,0-0.2-0.2-0.5-0.2c-0.3,0-2.7-0.4-2.9-0.4c-0.3,0-1.1,0.1-1.4,0
					c0,0-0.3-0.1-0.3-0.1c-0.2,0-2-0.7-2.2-0.7c-0.1,0-1.2,0.2-1.3,0.1L516.5,365.4z"/>
				<g class="st15">
					<image style="overflow:visible;" width="2" height="137" xlink:href="D6063797.png"  transform="matrix(1 0 0 1 556 368)">
					</image>
				</g>
				<path class="st10" d="M574.3,359.4c0,0,0,0-0.2,0c-0.5,0-1.2,0-1.8,0c-0.6,0,0.1-0.1-0.5-0.1c-0.5,0-1,0-1.5,0
					c-0.1,0-0.3,0-0.4,0c-0.7,0-0.1-0.1-0.8-0.1c-0.8,0-1.3,0-2.1,0c-0.8,0-0.3-0.1-1.2-0.1c-0.1,0-0.2,0-0.3,0l8.5-1.5l7.8,0.5
					L574.3,359.4z"/>
				<g>
					<g>
						<path class="st11" d="M537.3,498l-6.3-0.7l0.1-7.9l6.3,0.6L537.3,498z M531.3,496.9l5.7,0.7l0.1-7.2l-5.6-0.5L531.3,496.9z"/>
					</g>
					<g>
						<path class="st11" d="M544.9,498.9l-6.7-0.8l0.1-8.1l6.6,0.6L544.9,498.9z M538.6,497.7l5.9,0.7l0-7.4l-5.9-0.5L538.6,497.7z"
							/>
					</g>
					<g>
						<path class="st11" d="M552.8,499.9l-7-0.8l0-8.3l7,0.6V499.9z M546.2,498.6l6.2,0.7l0-7.6l-6.2-0.6L546.2,498.6z"/>
					</g>
					<path class="st11" d="M540.1,493.3c0,0.9,0.5,1.7,1.2,1.9l0,1.5l-0.4,0l0,0.4l-0.5-0.1l0,0.4l2.2,0.2l0-0.4l-0.5-0.1l0-0.4
						l-0.4,0l0-1.5c0.7,0,1.3-0.7,1.3-1.6l0-1.8l-2.9-0.3L540.1,493.3z"/>
					<polygon class="st11" points="546.8,497.7 546.8,498.1 551.7,498.7 551.7,498.2 					"/>
					<polygon class="st11" points="547.7,497.5 548.1,497.5 548.5,497.5 548.5,494 548.1,494 547.8,493.9 					"/>
					<polygon class="st11" points="550,497.7 550.4,497.7 550.8,497.8 550.8,494.2 550.4,494.2 550,494.2 					"/>
					<polygon class="st11" points="548.1,492 547.2,493.5 549.1,493.7 					"/>
					<polygon class="st11" points="550.4,492.3 549.4,493.8 551.3,494 					"/>
					<path class="st11" d="M534.2,490.8c-1.5-0.1-2.3,0.8-2.3,2.1l2.3,0.2l0,2.6c0,0.2-0.2,0.4-0.3,0.4c-0.2,0-0.3-0.2-0.3-0.5
						l0-0.2l-0.3,0l0,0.2c0,0.5,0.3,0.9,0.7,0.9c0.4,0,0.7-0.3,0.7-0.8l0-2.6l2,0.2C536.5,492.1,535.7,491,534.2,490.8z"/>
				</g>
			</g>
		</g>
	</g>
	<g>
		<g>
			<g>
				<image style="overflow:visible;" width="111" height="18" xlink:href="D60637E6.png"  transform="matrix(1 0 0 1 463 508)">
				</image>
			</g>
			<g>
				
					<linearGradient id="SVGID_7_" gradientUnits="userSpaceOnUse" x1="334.5041" y1="-1318.4248" x2="391.0452" y2="-1318.4248" gradientTransform="matrix(-1 0 0 1 908 1813.4742)">
					<stop  offset="0" style="stop-color:#AF8E61"/>
					<stop  offset="1" style="stop-color:#C6AE88"/>
				</linearGradient>
				<polygon class="st16" points="573.5,514.7 517,523.8 517,472.7 573.5,466.3 				"/>
				
					<linearGradient id="SVGID_8_" gradientUnits="userSpaceOnUse" x1="391.0452" y1="-1317.3126" x2="444.413" y2="-1317.3126" gradientTransform="matrix(-1 0 0 1 908 1813.4742)">
					<stop  offset="0" style="stop-color:#F6EBD7"/>
					<stop  offset="1" style="stop-color:#E3C9A0"/>
				</linearGradient>
				<polygon class="st17" points="463.6,515.9 517,523.8 517,472.7 463.6,468.5 				"/>
				<g>
					<polygon class="st14" points="573.5,466.3 517,472.7 463.6,468.5 510,462 					"/>
				</g>
				<g>
					<polygon class="st8" points="536.1,463.8 490.5,470.6 490,470.7 488.8,470.7 489.6,470.6 535.4,463.8 					"/>
				</g>
				<polygon class="st8" points="517,472.7 490.3,470.7 463.6,468.5 490.3,470.5 				"/>
				<path class="st10" d="M493.1,520.2l0-5.8c-0.1,0-0.2,0-0.3,0c-0.8-0.1-0.7-0.6-1.5-0.8c-0.8-0.1-0.9,0.4-1.7,0.3
					c-0.8-0.1-0.7-0.6-1.5-0.8c-0.2,0-0.3,0-0.4,0c-0.5,0.1-0.7,0.4-1.3,0.3c-0.8-0.1-0.7-0.6-1.5-0.8c-0.8-0.1-0.9,0.4-1.7,0.3
					c-0.3,0-0.4-0.1-0.6-0.2l0,5.9L493.1,520.2z"/>
				<path class="st10" d="M482.9,470l-0.2,4.5c0,0,0.9-0.5,1.7-0.4c0.8,0,0.8,0.6,1.6,0.6c0.8,0,0.9-0.4,1.6-0.4c0,0,0.1,0,0.1,0
					c0.8,0.1,0.8,0.6,1.6,0.6c0.8,0.1,0.9-0.5,1.7-0.4c0.8,0,0.8,0.6,1.6,0.6c0.2,0,0.3,0,0.4,0l0-4.2L482.9,470z"/>
				<path class="st10" d="M482.9,470l10.1,0.8l9.1-1.4c-0.2,0-0.2-0.2-0.4-0.2c-0.2,0-2.2-0.3-2.5-0.3c-0.2,0-0.9,0-1.2,0
					c0,0-0.3-0.1-0.3-0.1c-0.2,0-1.7-0.6-1.9-0.6c-0.1,0-1,0.1-1.1,0.1L482.9,470z"/>
				<g class="st15">
					<image style="overflow:visible;" width="2" height="52" xlink:href="D60637E9.png"  transform="matrix(1 0 0 1 516 472)">
					</image>
				</g>
				<path class="st10" d="M531.6,465c0,0,0,0-0.2,0c-0.4,0-1,0-1.5,0c-0.5,0,0.1-0.1-0.4-0.1c-0.4,0-0.9,0-1.3,0c-0.1,0-0.2,0-0.3,0
					c-0.6,0-0.1-0.1-0.7-0.1c-0.6,0-1.1,0-1.7,0c-0.7,0-0.3-0.1-1-0.1c-0.1,0-0.2,0-0.3,0l7.2-1.2l6.6,0.4L531.6,465z"/>
				<g>
					<g>
						<path class="st11" d="M500.5,518.5l-5.3-0.6l0.1-6.7l5.3,0.5L500.5,518.5z M495.4,517.5l4.8,0.6l0-6.1l-4.7-0.4L495.4,517.5z"
							/>
					</g>
					<g>
						<path class="st11" d="M506.8,519.2l-5.6-0.7l0-6.9l5.6,0.5L506.8,519.2z M501.5,518.2l5,0.6l0-6.2l-5-0.5L501.5,518.2z"/>
					</g>
					<g>
						<path class="st11" d="M513.5,520l-5.9-0.7l0-7l5.9,0.5V520z M507.9,519l5.3,0.6l0-6.4l-5.2-0.5L507.9,519z"/>
					</g>
					<path class="st11" d="M502.8,514.4c0,0.8,0.5,1.4,1,1.6l0,1.2l-0.3,0l0,0.4l-0.5-0.1l0,0.4l1.8,0.2l0-0.4l-0.5-0.1l0-0.4
						l-0.3,0l0-1.2c0.6,0,1.1-0.6,1.1-1.4l0-1.5l-2.4-0.2L502.8,514.4z"/>
					<polygon class="st11" points="508.4,518.2 508.4,518.6 512.6,519 512.6,518.6 					"/>
					<polygon class="st11" points="509.2,518 509.5,518 509.9,518 509.9,515.1 509.6,515 509.2,515 					"/>
					<polygon class="st11" points="511.1,518.2 511.5,518.2 511.8,518.3 511.8,515.3 511.5,515.2 511.1,515.2 					"/>
					<polygon class="st11" points="509.6,513.4 508.8,514.7 510.3,514.8 					"/>
					<polygon class="st11" points="511.5,513.6 510.7,514.9 512.3,515 					"/>
					<path class="st11" d="M497.8,512.4c-1.2-0.1-1.9,0.7-1.9,1.8l1.9,0.2l0,2.2c0,0.2-0.1,0.4-0.3,0.3c-0.2,0-0.3-0.2-0.3-0.4
						l0-0.2l-0.3,0l0,0.2c0,0.4,0.3,0.8,0.6,0.8c0.3,0,0.6-0.3,0.6-0.7l0-2.2l1.7,0.2C499.8,513.5,499,512.5,497.8,512.4z"/>
				</g>
			</g>
		</g>
	</g>
	<g>
		<g>
			<linearGradient id="SVGID_9_" gradientUnits="userSpaceOnUse" x1="164.9051" y1="410.6904" x2="241.6333" y2="410.6904">
				<stop  offset="0" style="stop-color:#CEBA95"/>
				<stop  offset="1" style="stop-color:#AF8E61"/>
			</linearGradient>
			<polygon class="st18" points="241.6,451.4 182.5,444.1 164.9,370 228.5,386.1 			"/>
			<linearGradient id="SVGID_10_" gradientUnits="userSpaceOnUse" x1="103.0085" y1="452.5314" x2="173.3009" y2="407.2807">
				<stop  offset="0" style="stop-color:#EAD5B3"/>
				<stop  offset="1" style="stop-color:#F6EAD7"/>
			</linearGradient>
			<polygon class="st19" points="114.2,486.5 182.5,444.1 164.9,370 99.6,427.1 			"/>
			<linearGradient id="SVGID_11_" gradientUnits="userSpaceOnUse" x1="104.623" y1="427.069" x2="129.4497" y2="427.069">
				<stop  offset="0" style="stop-color:#FEFBF5"/>
				<stop  offset="0" style="stop-color:#FDF8EE"/>
				<stop  offset="1" style="stop-color:#FFFFFF"/>
			</linearGradient>
			<path class="st20" d="M109.6,442.5l18.8-14.8c0.8-0.6,1.2-1.7,0.9-2.7l-3-12.8c-0.2-0.9-1.2-1.2-1.9-0.6l-18.9,16
				c-0.8,0.7-1.1,1.7-0.8,2.7l3.1,11.6C108,442.7,109,443.1,109.6,442.5z"/>
			<g>
				<linearGradient id="SVGID_12_" gradientUnits="userSpaceOnUse" x1="187.9275" y1="484.9565" x2="167.9469" y2="452.9809">
					<stop  offset="0" style="stop-color:#926D33"/>
					<stop  offset="1" style="stop-color:#7B5628"/>
				</linearGradient>
				<polygon class="st21" points="114.2,486.5 182.5,444.1 241.6,451.4 158.2,486.5 				"/>
			</g>
			<g>
				<path class="st7" d="M182.5,444.1c2.5,0.3,4.9,0.5,7.4,0.8l7.4,0.9c2.5,0.3,4.9,0.6,7.4,0.9l7.4,0.9l7.4,0.9
					c2.5,0.3,4.9,0.6,7.4,0.9l7.4,1c2.5,0.3,4.9,0.7,7.4,1c-2.5-0.3-4.9-0.5-7.4-0.8l-7.4-0.9c-2.5-0.3-4.9-0.6-7.4-0.9L212,448
					l-7.4-0.9c-2.5-0.3-4.9-0.6-7.4-0.9l-7.4-1C187.4,444.8,184.9,444.4,182.5,444.1z"/>
			</g>
			<g>
				<polygon class="st8" points="212,447.9 145.5,481.9 136.5,486.5 135.8,486.5 144.9,481.9 211.4,447.9 				"/>
			</g>
			<g>
				<path class="st22" d="M150.3,482.1l-0.1,0.1l-8.5,4.3l-10.9,0l8.4-4.3l0.1,0c0.2,0,0.4,0.1,0.7,0.1c0.4,0,0.5,0,0.7-0.1
					c0.2,0,0.4-0.1,0.8-0.1c0.4,0,0.6,0,0.8,0.1c0.2,0,0.4,0.1,0.8,0.1s0.5,0,0.7-0.1c0.2,0,0.4-0.1,0.8-0.1c0.4,0,0.6,0,0.8,0.1
					c0.2,0,0.4,0.1,0.8,0.1c0.4,0,0.5,0,0.7-0.1c0.2,0,0.4-0.1,0.8-0.1c0.4,0,0.6,0,0.8,0.1c0.2,0,0.4,0.1,0.8,0.1
					c0.4,0,0.5,0,0.7-0.1C149.9,482.2,150.1,482.1,150.3,482.1z"/>
				<path class="st22" d="M218.7,448.6l-7.1,3.6l-0.1,0.1c-0.2,0-0.4,0-0.8,0c-0.4-0.1-0.6-0.1-0.7-0.2c-0.2-0.1-0.3-0.1-0.7-0.2
					c-0.4,0-0.6,0-0.8,0c-0.2,0-0.4,0-0.9,0c-0.4-0.1-0.6-0.1-0.7-0.2c-0.2-0.1-0.3-0.1-0.7-0.2c-0.4,0-0.6,0-0.8,0
					c-0.2,0-0.4,0-0.9,0c-0.4-0.1-0.6-0.1-0.7-0.2c-0.2-0.1-0.3-0.1-0.7-0.2c-0.4,0-0.6,0-0.8,0c-0.2,0-0.4,0-0.9,0
					c-0.4-0.1-0.6-0.1-0.7-0.2c-0.2-0.1-0.3-0.1-0.7-0.2c-0.4,0-0.6,0-0.8,0c-0.2,0-0.4,0-0.9,0c-0.1,0-0.2,0-0.3,0l0.1,0l7.2-3.7h0
					L218.7,448.6z"/>
			</g>
			<g>
				<path class="st9" d="M218.7,448.6l-13.2-1.6l-1.5-8.5c0.3-0.1,0.5-0.3,1-0.3c0.8,0.1,0.7,0.7,1.4,0.8c0.8,0.1,0.8-0.5,1.6-0.4
					c0.8,0.1,0.7,0.7,1.4,0.8c0.8,0.1,0.8-0.5,1.6-0.4c0.8,0.1,0.7,0.7,1.4,0.8c0.8,0.1,0.8-0.5,1.6-0.4c0.8,0.1,0.7,0.7,1.4,0.8
					c0.8,0.1,0.8-0.5,1.6-0.4c0.1,0,0.1,0,0.1,0L218.7,448.6z"/>
				<path class="st9" d="M208.8,387.4c-0.3-0.2-0.4-0.5-0.9-0.6c-0.8-0.2-0.9,0.4-1.6,0.3c-0.8-0.2-0.6-0.7-1.4-0.9
					c-0.8-0.2-0.9,0.4-1.6,0.3c-0.8-0.2-0.6-0.7-1.4-0.9c-0.8-0.2-0.9,0.4-1.6,0.3c-0.8-0.2-0.6-0.7-1.4-0.9
					c-0.8-0.2-0.9,0.4-1.6,0.3c-0.8-0.2-0.6-0.7-1.4-0.9c-0.7-0.1-0.8,0.3-1.4,0.3l-1.3-7.5l14.7,3.7L208.8,387.4z"/>
			</g>
			<g>
				<g>
					<path class="st11" d="M159.3,452.7l-6.2,3.9l-1.9-7.8l6-4.2L159.3,452.7z M153.4,456l5.5-3.5l-1.8-7.2l-5.4,3.8L153.4,456z"/>
				</g>
				<g>
					<path class="st11" d="M167.1,447.8l-6.9,4.3l-2-8.2l6.7-4.7L167.1,447.8z M160.5,451.5l6.1-3.9l-1.9-7.6l-6,4.2L160.5,451.5z"
						/>
				</g>
				<g>
					<path class="st11" d="M175.7,442.3l-7.6,4.8l-2.2-8.5l7.4-5.2L175.7,442.3z M168.3,446.5l6.8-4.3l-2.2-7.9l-6.6,4.6
						L168.3,446.5z"/>
				</g>
				<path class="st11" d="M160.8,445.8c0.2,0.9,1,1.3,1.7,0.9l0.4,1.5l-0.4,0.2l0.1,0.5l-0.5,0.4l0.1,0.5l2.2-1.4l-0.1-0.5l-0.6,0.4
					l-0.1-0.5l-0.4,0.2l-0.4-1.5c0.7-0.6,1.1-1.7,0.8-2.7l-0.5-1.8l-2.9,2L160.8,445.8z"/>
				<polygon class="st11" points="168.8,445 168.9,445.4 174.2,442 174.1,441.5 				"/>
				<polygon class="st11" points="169.7,444 170.1,443.7 170.5,443.4 169.5,439.8 169.1,440.1 168.7,440.3 				"/>
				<polygon class="st11" points="172.1,442.4 172.5,442.1 172.9,441.8 172,438.1 171.5,438.4 171.1,438.7 				"/>
				<polygon class="st11" points="168.6,438.1 168,440.4 170,439 				"/>
				<polygon class="st11" points="171,436.4 170.4,438.8 172.5,437.4 				"/>
				<path class="st11" d="M154.5,447.9c-1.4,1-1.9,2.5-1.6,3.8l2.2-1.5l0.6,2.6c0.1,0.2,0,0.5-0.2,0.6c-0.2,0.1-0.4,0-0.4-0.2
					l-0.1-0.2l-0.3,0.2l0.1,0.2c0.1,0.5,0.5,0.7,0.9,0.4c0.4-0.2,0.6-0.8,0.5-1.3l-0.6-2.6l1.9-1.3
					C157,447.4,155.9,446.9,154.5,447.9z"/>
			</g>
		</g>
	</g>
	<g>
		<g>
			
				<linearGradient id="SVGID_13_" gradientUnits="userSpaceOnUse" x1="3577.0903" y1="314.7903" x2="3705.1179" y2="232.3726" gradientTransform="matrix(-0.9998 -1.750000e-02 -1.750000e-02 0.9998 4042.825 -8.043)">
				<stop  offset="0" style="stop-color:#E3C9A0"/>
				<stop  offset="1" style="stop-color:#FBF3E5"/>
				<stop  offset="1" style="stop-color:#FDF5E8"/>
			</linearGradient>
			<polygon class="st23" points="317.7,265.5 425.7,326.2 449,129.8 368.7,65.2 			"/>
			
				<linearGradient id="SVGID_14_" gradientUnits="userSpaceOnUse" x1="3705.5781" y1="286.4951" x2="3832.1609" y2="205.0074" gradientTransform="matrix(-0.9998 -1.750000e-02 -1.750000e-02 0.9998 4042.825 -8.043)">
				<stop  offset="0" style="stop-color:#CEBA95"/>
				<stop  offset="1" style="stop-color:#AF8E61"/>
			</linearGradient>
			<polygon class="st24" points="317.7,265.5 160.1,270.2 209,85.6 368.7,65.2 			"/>
			<path class="st9" d="M216.8,268.5l36.1-1.1l5.1-21c-0.8-0.4-1.3-1-2.6-0.9c-2.1,0.2-2,1.8-4.1,1.9c-2.1,0.2-2.2-1.4-4.3-1.3
				c-2.1,0.2-2,1.8-4.1,1.9c-2.1,0.2-2.2-1.4-4.3-1.3c-2.1,0.2-2,1.8-4.1,1.9c-2.1,0.2-2.2-1.4-4.3-1.2c-2.1,0.2-2,1.8-4.1,1.9
				c-2.1,0.2-2.2-1.4-4.3-1.2c-0.1,0-0.3,0-0.4,0.1L216.8,268.5z"/>
			<path class="st9" d="M259.7,94.4c0.8-0.6,1.1-1.4,2.5-1.6c2.1-0.3,2.3,1.3,4.4,1c2.1-0.3,1.9-1.9,4-2.2c2.1-0.3,2.3,1.3,4.4,1
				c2.1-0.3,1.9-1.9,4-2.2c2.1-0.3,2.3,1.3,4.4,1c2.1-0.3,1.9-1.9,4-2.2c2.1-0.3,2.3,1.3,4.4,1c2.1-0.3,1.9-1.9,4-2.2
				c1.9-0.3,2.3,1,3.9,1l3.8-15.6l-40.2,5.2L259.7,94.4z"/>
			<g>
				<g>
					<path class="st11" d="M382.4,263.9l17,10.8l-4.1,21.6l-17.4-10L382.4,263.9z M398.3,275.3l-15.2-9.6l-4,20l15.5,8.9
						L398.3,275.3z"/>
				</g>
				<g>
					<path class="st11" d="M361.1,250.4l18.9,12l-4.5,22.6l-19.3-11.1L361.1,250.4z M378.7,262.9l-16.8-10.6l-4.4,20.9l17.2,9.9
						L378.7,262.9z"/>
				</g>
				<g>
					<path class="st11" d="M337.4,235.4l21,13.3l-5,23.6L331.9,260L337.4,235.4z M357.1,249.3l-18.7-11.8l-4.9,21.9l19.1,11
						L357.1,249.3z"/>
				</g>
				<path class="st11" d="M373,267.6c-0.5,2.5-2.5,3.7-4.6,2.7l-0.8,4.1l1,0.6l-0.3,1.2l1.5,0.9l-0.3,1.2l-6.2-3.6l0.3-1.3l1.6,0.9
					l0.3-1.3l1,0.6l0.8-4.1c-2-1.5-3.1-4.6-2.6-7.2l1-5l8.2,5.1L373,267.6z"/>
				<polygon class="st11" points="351.2,266.3 350.9,267.6 335.9,258.9 336.2,257.5 				"/>
				<polygon class="st11" points="348.6,263.7 347.5,263 346.3,262.4 348.5,252.3 349.7,253 350.8,253.7 				"/>
				<polygon class="st11" points="341.7,259.7 340.5,259 339.4,258.3 341.6,248.1 342.8,248.8 344,249.5 				"/>
				<polygon class="st11" points="350.8,247.5 352.7,253.7 347,250.3 				"/>
				<polygon class="st11" points="344,243.2 345.9,249.6 340.1,246 				"/>
				<path class="st11" d="M390.4,272.7c3.9,2.5,5.6,6.7,4.9,10.3l-6.2-3.8l-1.4,7.2c-0.1,0.7,0.2,1.4,0.7,1.7c0.5,0.3,1,0,1.2-0.6
					l0.1-0.6l0.9,0.5l-0.1,0.6c-0.3,1.3-1.3,1.9-2.3,1.3c-1-0.6-1.7-2.2-1.4-3.5l1.4-7.2l-5.4-3.3
					C383.5,271.7,386.4,270.2,390.4,272.7z"/>
			</g>
			<polygon class="st25" points="425.7,326.2 456.9,343.7 495.1,173.2 449,129.8 			"/>
			<path class="st26" d="M330.9,326.3l0.3,0.2l18.6,11.4l28.4,1.5l-17-10.4l-0.2-0.1c-0.5,0.1-1,0.1-1.9,0.1c-1-0.1-1.4-0.2-1.8-0.4
				c-0.5-0.2-1-0.3-2.1-0.4c-1.1-0.1-1.7,0-2.3,0.1c-0.6,0.1-1.1,0.2-2.1,0.1c-1-0.1-1.4-0.2-1.8-0.4c-0.5-0.2-1-0.3-2.1-0.4
				c-1.1-0.1-1.7,0-2.3,0.1c-0.6,0.1-1.1,0.2-2.1,0.1c-1-0.1-1.4-0.2-1.8-0.4c-0.5-0.2-1-0.3-2.1-0.4c-1.1-0.1-1.7,0-2.3,0.1
				c-0.6,0.1-1.1,0.2-2.1,0.1c-1-0.1-1.4-0.2-1.8-0.4C331.8,326.5,331.5,326.4,330.9,326.3z"/>
			<g class="st15">
				<polygon class="st27" points="333.8,321.1 365.5,338.7 367,338.8 335.3,321.2 				"/>
			</g>
			
				<linearGradient id="SVGID_15_" gradientUnits="userSpaceOnUse" x1="3911.4595" y1="-113.6245" x2="4174.2397" y2="-113.6245" gradientTransform="matrix(-0.999 4.410000e-02 4.410000e-02 0.999 4336.7173 233.4323)">
				<stop  offset="0" style="stop-color:#926D33"/>
				<stop  offset="1" style="stop-color:#7B5628"/>
			</linearGradient>
			<polygon class="st28" points="265.4,317.3 425.7,326.2 317.7,265.5 160.1,270.2 			"/>
			<path class="st7" d="M317.7,265.5c-13.1,0.6-26.2,1-39.4,1.5l-39.4,1.3l-39.4,1c-13.1,0.4-26.3,0.7-39.4,0.9
				c13.1-0.6,26.2-1,39.4-1.5l39.4-1.3l39.4-1C291.4,266,304.5,265.7,317.7,265.5z"/>
			<g>
				<polygon class="st7" points="237.8,267.9 333.8,321.1 335.3,321.2 239,267.8 				"/>
			</g>
			<path class="st9" d="M216.8,268.5l23.1,10.7l0.3,0.2c0.6,0.1,1.2,0.3,2.3,0.3c1.1,0,1.6-0.1,2.1-0.2c0.5-0.1,0.9-0.2,1.9-0.2
				c1,0,1.5,0.1,2.1,0.3c0.6,0.1,1.2,0.3,2.3,0.3c1.1,0,1.6-0.1,2.1-0.2c0.5-0.1,0.9-0.2,1.9-0.2c1,0,1.5,0.1,2.1,0.3
				c0.6,0.1,1.2,0.3,2.3,0.3c1.1,0,1.6-0.1,2.1-0.2c0.5-0.1,0.9-0.2,1.9-0.2c1,0,1.5,0.2,2.1,0.3c0.6,0.1,1.2,0.3,2.3,0.3
				c1.1,0,1.6-0.1,2.1-0.2c0.5-0.1,0.9-0.2,1.9-0.2c1,0,1.5,0.1,2.1,0.3c0.6,0.1,1.2,0.3,2.3,0.3c0.3,0,0.5,0,0.7,0l-0.2-0.1
				l-23.5-12.9l0,0L216.8,268.5z"/>
		</g>
	</g>
	<g>
		
			<linearGradient id="SVGID_16_" gradientUnits="userSpaceOnUse" x1="396.6768" y1="-529.3871" x2="441.2511" y2="-529.3871" gradientTransform="matrix(0.9743 0.2251 -0.2251 0.9743 -414.9077 714.7709)">
			<stop  offset="0" style="stop-color:#CEBA95"/>
			<stop  offset="1" style="stop-color:#AF8E61"/>
		</linearGradient>
		<polygon class="st29" points="128.8,321.4 96.3,309.5 96.1,265.2 129.9,282.7 		"/>
		
			<linearGradient id="SVGID_17_" gradientUnits="userSpaceOnUse" x1="360.7224" y1="-505.0811" x2="401.5544" y2="-531.3666" gradientTransform="matrix(0.9743 0.2251 -0.2251 0.9743 -414.9077 714.7709)">
			<stop  offset="0" style="stop-color:#DBBB89"/>
			<stop  offset="1" style="stop-color:#F2E3C8"/>
		</linearGradient>
		<polygon class="st30" points="52.1,324.6 96.3,309.5 96.1,265.2 51.6,289 		"/>
		
			<linearGradient id="SVGID_18_" gradientUnits="userSpaceOnUse" x1="361.6602" y1="-519.8702" x2="376.0822" y2="-519.8702" gradientTransform="matrix(0.9743 0.2251 -0.2251 0.9743 -414.9077 714.7709)">
			<stop  offset="0" style="stop-color:#FEFBF5"/>
			<stop  offset="0" style="stop-color:#FDF8EE"/>
			<stop  offset="1" style="stop-color:#FFFFFF"/>
		</linearGradient>
		<path class="st31" d="M55.3,299.1l12.6-5.9c0.5-0.3,0.9-0.8,0.9-1.4l0-7.6c0-0.5-0.5-0.8-1-0.6l-12.8,6.6
			c-0.5,0.3-0.8,0.8-0.8,1.4l0.2,7C54.3,299,54.9,299.3,55.3,299.1z"/>
		<g>
			
				<linearGradient id="SVGID_19_" gradientUnits="userSpaceOnUse" x1="410.0526" y1="-486.2463" x2="398.4477" y2="-504.818" gradientTransform="matrix(0.9743 0.2251 -0.2251 0.9743 -414.9077 714.7709)">
				<stop  offset="0" style="stop-color:#926D33"/>
				<stop  offset="1" style="stop-color:#7B5628"/>
			</linearGradient>
			<polygon class="st32" points="52.1,324.6 96.3,309.5 128.8,321.4 77.1,330.3 			"/>
		</g>
		<g>
			<path class="st7" d="M96.3,309.5c1.4,0.5,2.7,1,4.1,1.4l4.1,1.5c1.4,0.5,2.7,1,4.1,1.5l4.1,1.5l4.1,1.5c1.4,0.5,2.7,1,4.1,1.5
				l4.1,1.5c1.3,0.5,2.7,1,4,1.5c-1.4-0.5-2.7-1-4.1-1.4l-4.1-1.5c-1.4-0.5-2.7-1-4.1-1.5l-4.1-1.5l-4.1-1.5c-1.4-0.5-2.7-1-4.1-1.5
				l-4.1-1.5C99,310.5,97.7,310,96.3,309.5z"/>
		</g>
		<g>
			<polygon class="st8" points="112.5,315.5 70.5,326 64.7,327.5 64.4,327.4 70.1,326 112.2,315.4 			"/>
		</g>
		<g>
			<path class="st22" d="M73.1,326.8L73.1,326.8l-5.4,1.4l-6.2-1.4l5.3-1.3l0,0c0.1,0,0.2,0.1,0.4,0.1c0.2,0,0.3,0,0.4,0
				c0.1,0,0.2,0,0.4,0c0.2,0.1,0.3,0.1,0.5,0.2c0.1,0.1,0.2,0.1,0.4,0.1c0.2,0,0.3,0,0.4,0c0.1,0,0.2,0,0.4,0
				c0.2,0.1,0.4,0.1,0.5,0.2c0.1,0.1,0.2,0.1,0.4,0.1c0.2,0,0.3,0,0.4,0c0.1,0,0.2,0,0.4,0c0.2,0.1,0.3,0.1,0.5,0.2
				c0.1,0.1,0.2,0.1,0.4,0.1c0.2,0,0.3,0,0.4,0C72.9,326.8,73,326.8,73.1,326.8z"/>
			<path class="st22" d="M116.2,316.7l-4.5,1.1l-0.1,0c-0.1,0-0.3,0-0.5-0.1c-0.2-0.1-0.3-0.1-0.4-0.2c-0.1-0.1-0.2-0.1-0.4-0.2
				c-0.2-0.1-0.3-0.1-0.4-0.1c-0.1,0-0.3,0-0.5-0.1c-0.2-0.1-0.3-0.1-0.4-0.2c-0.1-0.1-0.2-0.1-0.4-0.2c-0.2-0.1-0.3-0.1-0.4-0.1
				c-0.1,0-0.3,0-0.5-0.1c-0.2-0.1-0.3-0.1-0.4-0.2c-0.1-0.1-0.2-0.1-0.4-0.2c-0.2-0.1-0.3-0.1-0.4-0.1c-0.1,0-0.3,0-0.5-0.1
				c-0.2-0.1-0.3-0.1-0.4-0.2c-0.1-0.1-0.2-0.1-0.4-0.2c-0.2-0.1-0.3-0.1-0.4-0.1c-0.1,0-0.3,0-0.5-0.1c-0.1,0-0.1,0-0.1-0.1l0,0
				l4.6-1.1l0,0L116.2,316.7z"/>
		</g>
		<g>
			<path class="st9" d="M116.2,316.7l-7.3-2.7l0.3-5c0.2,0,0.3-0.1,0.6,0c0.4,0.2,0.3,0.5,0.7,0.6c0.4,0.2,0.5-0.2,1,0
				c0.4,0.2,0.3,0.5,0.7,0.6c0.4,0.2,0.5-0.2,1,0c0.4,0.2,0.3,0.5,0.7,0.6c0.4,0.2,0.5-0.2,1,0c0.4,0.2,0.3,0.5,0.7,0.6
				c0.4,0.2,0.5-0.2,1,0c0,0,0.1,0,0.1,0L116.2,316.7z"/>
			<path class="st9" d="M118.6,280.8c-0.1-0.2-0.1-0.4-0.4-0.5c-0.4-0.2-0.5,0.1-1-0.1c-0.4-0.2-0.3-0.5-0.7-0.7
				c-0.4-0.2-0.5,0.1-1-0.1c-0.4-0.2-0.3-0.5-0.7-0.7c-0.4-0.2-0.5,0.1-1-0.1c-0.4-0.2-0.3-0.5-0.7-0.7c-0.4-0.2-0.5,0.1-1-0.1
				c-0.4-0.2-0.3-0.5-0.7-0.7c-0.4-0.2-0.5,0.1-0.9,0l0.2-4.4l7.9,4L118.6,280.8z"/>
		</g>
		<g>
			<g>
				<path class="st11" d="M82.1,311.3l-4,1.4l0-4.7l4-1.6L82.1,311.3z M78.3,312.4l3.6-1.3l-0.1-4.3l-3.5,1.4L78.3,312.4z"/>
			</g>
			<g>
				<path class="st11" d="M87.1,309.6l-4.5,1.6l-0.1-4.9l4.4-1.8L87.1,309.6z M82.9,310.8l4-1.4l-0.1-4.5l-3.9,1.6L82.9,310.8z"/>
			</g>
			<g>
				<path class="st11" d="M92.7,307.6l-5,1.7l-0.1-5.1l4.9-2L92.7,307.6z M88,309l4.4-1.6l-0.2-4.8l-4.4,1.7L88,309z"/>
			</g>
			<path class="st11" d="M83.8,307.6c0,0.5,0.4,0.9,0.8,0.8l0,0.9l-0.2,0.1l0,0.3l-0.4,0.1l0,0.3l1.4-0.5l0-0.3l-0.4,0.1l0-0.3
				l-0.2,0.1l0-0.9c0.5-0.2,0.8-0.8,0.8-1.4l0-1.1l-1.9,0.8L83.8,307.6z"/>
			<polygon class="st11" points="88.4,308.2 88.4,308.5 91.9,307.2 91.9,306.9 			"/>
			<polygon class="st11" points="89.1,307.7 89.3,307.6 89.6,307.5 89.5,305.4 89.3,305.5 89,305.6 			"/>
			<polygon class="st11" points="90.7,307.2 90.9,307.1 91.2,307 91.1,304.7 90.9,304.8 90.6,304.9 			"/>
			<polygon class="st11" points="89.2,304.3 88.6,305.5 89.9,305 			"/>
			<polygon class="st11" points="90.8,303.6 90.2,304.9 91.5,304.4 			"/>
			<path class="st11" d="M80,308c-0.9,0.4-1.4,1.2-1.4,2l1.4-0.5l0,1.5c0,0.1-0.1,0.3-0.2,0.3c-0.1,0-0.2,0-0.2-0.2l0-0.1l-0.2,0.1
				l0,0.1c0,0.3,0.2,0.4,0.4,0.4c0.2-0.1,0.4-0.4,0.4-0.7l0-1.6l1.3-0.5C81.5,308,80.9,307.6,80,308z"/>
		</g>
	</g>
</g>
</svg>
