<svg xmlns="http://www.w3.org/2000/svg" viewBox="0 0 24 24"><defs><style>.cls-1{fill:#3751ff;}.cls-2{fill:#fff;}</style></defs><g id="Layer_2" data-name="Layer 2"><g id="Layer_1-2" data-name="Layer 1"><path class="cls-1" d="M12,0h0A12,12,0,0,1,24,12h0A12,12,0,0,1,12,24h0A12,12,0,0,1,0,12H0A12,12,0,0,1,12,0Z"/><polygon class="cls-2" points="15.2 6.44 12 4.59 8.8 6.44 8.8 8.14 12 6.3 13.56 7.2 13.56 8.46 8.8 11.21 8.8 17.56 10.44 18.51 10.44 11.97 15.2 9.22 15.2 6.44"/><polygon class="cls-2" points="7.6 9.51 7.6 11.2 12.82 8.21 12.82 7.45 12 6.97 7.77 9.42 7.6 9.51"/><polygon class="cls-2" points="11.18 18.94 12 19.41 12.82 18.94 12.82 11.27 11.18 12.21 11.18 18.94"/><polygon class="cls-2" points="16.4 9.51 16.13 9.36 13.56 10.84 13.56 18.51 15.2 17.56 15.2 11.6 16.4 10.91 16.4 9.51"/><polygon class="cls-2" points="6.86 9.27 8.05 8.58 8.05 6.87 5.22 8.5 5.22 15.5 8.05 17.13 8.05 15.42 6.86 14.73 6.86 9.27"/><polygon class="cls-2" points="15.95 6.87 15.95 8.58 17.14 9.27 17.14 14.73 15.95 15.42 15.95 17.13 18.78 15.5 18.78 8.5 15.95 6.87"/></g></g></svg>